<?xml version="1.0" encoding="utf-8"?>
<!-- Generator: Adobe Illustrator 26.0.1, SVG Export Plug-In . SVG Version: 6.00 Build 0)  -->
<svg version="1.1" id="Layer_1" xmlns="http://www.w3.org/2000/svg" xmlns:xlink="http://www.w3.org/1999/xlink" x="0px" y="0px"
	 viewBox="0 0 1000 1000" style="enable-background:new 0 0 1000 1000;" xml:space="preserve">
<style type="text/css">
	.st0{display:none;fill:#016065;}
	.st1{display:none;fill:#CEDC38;}
	.st2{display:none;fill:#014D41;}
	.st3{display:none;fill:#7CB342;}
	.st4{display:none;fill:#FEC111;}
	.st5{display:none;fill:#F9A01B;}
	.st6{fill:#C32026;}
	.st7{fill:#010101;}
</style>
<path class="st0" d="M876.5,479.5c0,38.9-5.6,76.5-16.1,112c-8,27.3-18.9,53.4-32.3,77.8c-29.4,53.7-70.8,99.8-120.7,134.7
	c-12.5,8.8-25.6,16.8-39.1,24.2c-47.7,25.7-101.3,42-158.2,46.1c-9.7,0.7-19.6,1.1-29.5,1.1c-21.4,0-42.4-1.7-62.8-5
	c-61.9-9.9-119-34.1-167.8-69.1c-17-12.2-33-25.7-47.8-40.4C129.5,689.3,84.5,589.6,84.5,479.5c0-183,124.2-337.1,292.9-382.4
	c27.2-7.3,55.5-11.8,84.6-13.1c6.1-0.3,12.3-0.4,18.5-0.4c41,0,80.6,6.2,117.8,17.8c38.1,11.8,73.6,29.3,105.8,51.3
	c43.2,29.6,80.2,67.6,108.8,111.5c14.3,22,26.4,45.5,36.1,70.1C866.8,379.3,876.5,428.3,876.5,479.5z"/>
<polygon class="st1" points="252.5,208.5 298.5,229.5 284.5,244.5 329.5,235.5 384.5,239.5 323.5,270.5 306.5,288.5 311.5,324.5 
	332.5,328.5 351.5,293.5 381.5,275.5 411.5,288.5 421.5,317.5 362.5,344.5 382.5,360.5 317.5,381.5 286.5,415.5 234.5,445.5 
	232.5,481.5 198.5,435.5 156.5,437.5 146.1,479.5 192.5,549.5 161.5,518.5 120.5,492.5 118.5,416.5 127.5,369.5 160.5,322.5 
	212.5,266.5 215.5,234.5 192.5,221.5 "/>
<polygon class="st1" points="451,167 490,160 521,182 519,208 532,221 478.5,268.2 456,247 462,225 434,189 "/>
<path class="st2" d="M860.4,591.5c-8,27.3-18.9,53.4-32.3,77.8c-29.4,53.7-70.8,99.8-120.7,134.7c-12.5,8.8-25.6,16.8-39.1,24.2
	L628,791c0,0-47.8,44.2-118,83.4c-9.7,0.7-19.6,1.1-29.5,1.1c-21.4,0-42.4-1.7-62.8-5c-61.9-9.9-119-34.1-167.8-69.1
	c-17-12.2-33-25.7-47.8-40.4c20.1,1.3,318.1,14.8,437.9-329.1c0,0-41-287.7-262.6-334.9c27.2-7.3,55.5-11.8,84.6-13.1
	c6.1-0.3,12.3-0.4,18.5-0.4c41,0,80.6,6.2,117.8,17.8c38.1,11.8,73.6,29.3,105.8,51.3c43.2,29.6,80.2,67.6,108.8,111.5
	c14.3,22,26.4,45.5,36.1,70.1c0,0,2,72.7-17,115.7C832,450,849.9,530.1,860.4,591.5z"/>
<polygon class="st1" points="610,671 566,744 509,776 394,835 344,800 315,759 311.7,749.9 304,729 255,701 201,646 216,586 
	207,556 249,552 376,607 386,646 407,634 470,660 488.9,661.5 "/>
<path class="st3" d="M610,671l-44,73l-57,32l-115,59l-50-35l-29-41l-3.3-9.1c52.4-12.5,116.7-37.8,177.2-88.5L610,671z"/>
<path class="st4" d="M805.9,367.4c-11.6,78.2-41.5,189.5-117,293.5c-58.6,80.7-144.8,156.9-271.3,209.7
	c-61.9-9.9-119-34.1-167.8-69.1c0,0,294.8-16.9,411.1-304.2c35.4-87.4,54.2-199.9,43.2-344.6c7.3,5,14.5,10.3,21.4,15.8
	c34.1,26.9,63.6,59.2,87.3,95.8C812.9,264.2,815.2,305.3,805.9,367.4z"/>
<path class="st5" d="M805.9,367.4c-11.6,78.2-41.5,189.5-117,293.5c-5.8-68.7-17.7-125-28-163.6c35.4-87.4,54.2-199.9,43.2-344.6
	c7.3,5,14.5,10.3,21.4,15.8C758.7,227.8,785.7,301.7,805.9,367.4z"/>
<path class="st4" d="M938,688L833,916L707.4,804.1L632,737l112-18C656,95,462,84,462,84s0,0,0-0.1c6.1-0.3,12.3-0.4,18.5-0.4
	c41,0,80.6,6.2,117.8,17.8c155.2,74.3,214.9,452.5,229.8,568.1c2.7,21.2,3.9,33.6,3.9,33.6L938,688z"/>
<g>
	<path id="redline" class="st6" d="M65.7,457.2C41.1,457.2,20,478.4,20,503c0,24,20,44.8,43.8,45.8l18.5-91.7H65.7z M219.2,457.2
		l-18.4,91.7H442l-18.2-91.7H219.2z M560.3,457.2l18.2,91.7h202.2l18.4-91.7H560.3z M936.2,457.2l-18.5,91.7h16.7
		c24.6,0,45.7-21.2,45.7-45.8C980,479.1,960,458.2,936.2,457.2z"/>
	<path id="m-squiggle" class="st7" d="M173.4,141.7L77,620.3H159l51.6-257.9l24.8,67.8h75.7l-92.7-288.5H173.4z M423.1,141.7
		l-90.7,288.5h76.3l24.8-67.8l99.8,495.8H578l88.7-282.5H590l-22.4,61.7l-3.4-17.2h1.3l-97.8-478.7H423.1z M664,373.4l-20.7,56.8
		h71.8l-20.7-56.8H664z M842.3,379.7l-51.7,257.9l-22.4-61.7h-76l90.7,282.5h45l96.4-478.7H842.3z M288.3,575.8l18.5,50.7h30.3
		l18.5-50.7H288.3z"/>
</g>
</svg>
