<?xml version="1.0" encoding="utf-8"?>
<!-- Generator: Adobe Illustrator 26.0.1, SVG Export Plug-In . SVG Version: 6.00 Build 0)  -->
<svg version="1.1" id="Layer_1" xmlns="http://www.w3.org/2000/svg" xmlns:xlink="http://www.w3.org/1999/xlink" x="0px" y="0px"
	 viewBox="0 0 1000 1000" style="enable-background:new 0 0 1000 1000;" xml:space="preserve">
<style type="text/css">
	.st0{fill:#ED2224;}
	.st1{fill:#FFFFFF;}
	.st2{fill:#2188CA;}
</style>
<g>
	<g>
		<path class="st0" d="M879.6,241.9c-9.9-36.6-38.5-65.3-75.1-75.1c-49.2-19-525.6-28.3-663.8,0.5c-36.6,9.9-65.3,38.5-75.1,75.1
			c-22.2,97.4-23.9,307.9,0.5,407.5c9.9,36.6,38.5,65.3,75.1,75.1c97.4,22.4,560.4,25.6,663.8,0c36.6-9.9,65.3-38.5,75.1-75.1
			C903.8,543.8,905.5,346.3,879.6,241.9z"/>
		<path class="st1" d="M615.3,445.9l-222-127.3v254.6L615.3,445.9z"/>
	</g>
	<g>
		<circle class="st2" cx="785.5" cy="685" r="166"/>
		<g>
			<path class="st1" d="M786.5,701.3h-1.9c-8.4,0-15.2-6.8-15.2-15.2v-95.5c0-8.4,6.8-15.2,15.2-15.2h1.9c8.4,0,15.2,6.8,15.2,15.2
				v95.5C801.6,694.5,794.8,701.3,786.5,701.3z"/>
			<path class="st1" d="M776.8,751.4l-53.2-56.1c-7.3-7.6-1.8-20.3,8.7-20.3h106.5c10.5,0,16,12.6,8.7,20.3l-53.2,56.1
				C789.5,756.4,781.5,756.4,776.8,751.4z"/>
			<path class="st1" d="M845.8,794.5H725.2c-6.9,0-12.5-5.6-12.5-12.5v0c0-6.9,5.6-12.5,12.5-12.5h120.6c6.9,0,12.5,5.6,12.5,12.5v0
				C858.3,788.9,852.7,794.5,845.8,794.5z"/>
		</g>
	</g>
</g>
</svg>
